<?xml version="1.0" standalone="no"?>
<svg xmlns:xlink="http://www.w3.org/1999/xlink" id="wave" style="transform:rotate(180deg); transition: 0.3s" viewBox="0 0 1440 330" version="1.1" xmlns="http://www.w3.org/2000/svg" preserveAspectRatio="none"><defs><linearGradient id="sw-gradient-0" x1="0" x2="0" y1="1" y2="0"><stop stop-color="rgba(243, 106, 62, 1)" offset="0%"/><stop stop-color="rgba(255, 179, 11, 1)" offset="100%"/></linearGradient></defs><path style="transform:translate(0, 0px); opacity:1" fill="url(#sw-gradient-0)" d="M0,99L40,99C80,99,160,99,240,126.5C320,154,400,209,480,236.5C560,264,640,264,720,242C800,220,880,176,960,176C1040,176,1120,220,1200,209C1280,198,1360,132,1440,99C1520,66,1600,66,1680,93.5C1760,121,1840,176,1920,214.5C2000,253,2080,275,2160,236.5C2240,198,2320,99,2400,77C2480,55,2560,110,2640,126.5C2720,143,2800,121,2880,115.5C2960,110,3040,121,3120,148.5C3200,176,3280,220,3360,220C3440,220,3520,176,3600,176C3680,176,3760,220,3840,231C3920,242,4000,220,4080,225.5C4160,231,4240,264,4320,280.5C4400,297,4480,297,4560,247.5C4640,198,4720,99,4800,93.5C4880,88,4960,176,5040,214.5C5120,253,5200,242,5280,220C5360,198,5440,165,5520,176C5600,187,5680,242,5720,269.5L5760,297L5760,330L5720,330C5680,330,5600,330,5520,330C5440,330,5360,330,5280,330C5200,330,5120,330,5040,330C4960,330,4880,330,4800,330C4720,330,4640,330,4560,330C4480,330,4400,330,4320,330C4240,330,4160,330,4080,330C4000,330,3920,330,3840,330C3760,330,3680,330,3600,330C3520,330,3440,330,3360,330C3280,330,3200,330,3120,330C3040,330,2960,330,2880,330C2800,330,2720,330,2640,330C2560,330,2480,330,2400,330C2320,330,2240,330,2160,330C2080,330,2000,330,1920,330C1840,330,1760,330,1680,330C1600,330,1520,330,1440,330C1360,330,1280,330,1200,330C1120,330,1040,330,960,330C880,330,800,330,720,330C640,330,560,330,480,330C400,330,320,330,240,330C160,330,80,330,40,330L0,330Z"/><defs><linearGradient id="sw-gradient-1" x1="0" x2="0" y1="1" y2="0"><stop stop-color="rgba(243, 106, 62, 1)" offset="0%"/><stop stop-color="rgba(255, 179, 11, 1)" offset="100%"/></linearGradient></defs><path style="transform:translate(0, 50px); opacity:0.9" fill="url(#sw-gradient-1)" d="M0,33L40,60.5C80,88,160,143,240,159.5C320,176,400,154,480,148.5C560,143,640,154,720,170.5C800,187,880,209,960,220C1040,231,1120,231,1200,231C1280,231,1360,231,1440,242C1520,253,1600,275,1680,236.5C1760,198,1840,99,1920,71.5C2000,44,2080,88,2160,104.5C2240,121,2320,110,2400,126.5C2480,143,2560,187,2640,220C2720,253,2800,275,2880,247.5C2960,220,3040,143,3120,126.5C3200,110,3280,154,3360,176C3440,198,3520,198,3600,176C3680,154,3760,110,3840,110C3920,110,4000,154,4080,170.5C4160,187,4240,176,4320,170.5C4400,165,4480,165,4560,137.5C4640,110,4720,55,4800,77C4880,99,4960,198,5040,225.5C5120,253,5200,209,5280,176C5360,143,5440,121,5520,110C5600,99,5680,99,5720,99L5760,99L5760,330L5720,330C5680,330,5600,330,5520,330C5440,330,5360,330,5280,330C5200,330,5120,330,5040,330C4960,330,4880,330,4800,330C4720,330,4640,330,4560,330C4480,330,4400,330,4320,330C4240,330,4160,330,4080,330C4000,330,3920,330,3840,330C3760,330,3680,330,3600,330C3520,330,3440,330,3360,330C3280,330,3200,330,3120,330C3040,330,2960,330,2880,330C2800,330,2720,330,2640,330C2560,330,2480,330,2400,330C2320,330,2240,330,2160,330C2080,330,2000,330,1920,330C1840,330,1760,330,1680,330C1600,330,1520,330,1440,330C1360,330,1280,330,1200,330C1120,330,1040,330,960,330C880,330,800,330,720,330C640,330,560,330,480,330C400,330,320,330,240,330C160,330,80,330,40,330L0,330Z"/></svg>